<svg width="17" height="16" viewBox="0 0 17 16" fill="none" xmlns="http://www.w3.org/2000/svg">
<path d="M4.45 15.1666C5.20333 15.1666 5.99667 14.9866 6.81667 14.64C7.61667 14.3 8.42333 13.8333 9.21 13.2666C9.99 12.6933 10.7433 12.0533 11.4567 11.3533C12.1633 10.64 12.8033 9.88665 13.37 9.11331C13.9433 8.31331 14.4033 7.51331 14.73 6.73998C15.0767 5.91331 15.25 5.11331 15.25 4.35998C15.25 3.83998 15.1567 3.34665 14.9767 2.88665C14.79 2.41331 14.49 1.97331 14.0833 1.59331C13.57 1.08665 12.9833 0.833313 12.3567 0.833313C12.0967 0.833313 11.83 0.893313 11.6033 0.99998C11.3433 1.11998 11.1233 1.29998 10.9633 1.53998L9.41667 3.71998C9.27667 3.91331 9.17 4.09998 9.09667 4.28665C9.01 4.48665 8.96333 4.68665 8.96333 4.87998C8.96333 5.13331 9.03667 5.37998 9.17667 5.61331C9.27667 5.79331 9.43 5.98665 9.62333 6.17998L10.0767 6.65331C10.07 6.67331 10.0633 6.68665 10.0567 6.69998C9.97667 6.83998 9.81667 7.07998 9.51 7.43998C9.18333 7.81331 8.87667 8.15331 8.57 8.46665C8.17667 8.85331 7.85 9.15998 7.54333 9.41331C7.16333 9.73331 6.91667 9.89331 6.77 9.96665L6.78333 9.99998L6.29667 9.51998C6.09 9.31331 5.89 9.15998 5.69667 9.05998C5.33 8.83331 4.86333 8.79331 4.39667 8.98665C4.22333 9.05998 4.03667 9.15998 3.83667 9.29998L1.62333 10.8733C1.37667 11.04 1.19667 11.2533 1.09 11.5066C0.99 11.76 0.943334 11.9933 0.943334 12.2266C0.943334 12.5466 1.01667 12.8666 1.15667 13.1666C1.29667 13.4666 1.47 13.7266 1.69 13.9666C2.07 14.3866 2.48333 14.6866 2.96333 14.88C3.42333 15.0666 3.92333 15.1666 4.45 15.1666ZM12.3567 1.83331C12.7233 1.83331 13.0633 1.99331 13.39 2.31331C13.6967 2.59998 13.91 2.91331 14.0433 3.25331C14.1833 3.59998 14.25 3.96665 14.25 4.35998C14.25 4.97998 14.1033 5.65331 13.81 6.34665C13.51 7.05331 13.09 7.78665 12.5567 8.51998C12.0233 9.25331 11.4167 9.96665 10.75 10.64C10.0833 11.3 9.36333 11.9133 8.62333 12.4533C7.90333 12.98 7.16333 13.4066 6.43 13.7133C5.29 14.2 4.22333 14.3133 3.34333 13.9466C3.00333 13.8066 2.70333 13.5933 2.43 13.2866C2.27667 13.12 2.15667 12.94 2.05667 12.7266C1.97667 12.56 1.93667 12.3866 1.93667 12.2133C1.93667 12.1066 1.95667 12 2.01 11.88C2.03 11.84 2.07 11.7666 2.19667 11.68L4.41 10.1066C4.54333 10.0133 4.66333 9.94665 4.77667 9.89998C4.92333 9.83998 4.98333 9.77998 5.21 9.91998C5.34333 9.98665 5.46333 10.0866 5.59667 10.22L6.10333 10.72C6.36333 10.9733 6.76333 11.0333 7.07 10.92L7.25 10.84C7.52333 10.6933 7.84333 10.4666 8.19667 10.1666C8.51667 9.89331 8.86333 9.57331 9.28333 9.15998C9.61 8.82665 9.93667 8.47331 10.2767 8.07998C10.59 7.71331 10.8167 7.39998 10.9567 7.13998L11.0367 6.93998C11.0767 6.78665 11.09 6.69998 11.09 6.60665C11.09 6.36665 11.0033 6.15331 10.8367 5.98665L10.3367 5.46665C10.2033 5.33331 10.1033 5.20665 10.0367 5.09331C9.98333 5.00665 9.96333 4.93331 9.96333 4.86665C9.96333 4.81331 9.98333 4.73331 10.0167 4.65331C10.0633 4.54665 10.1367 4.42665 10.23 4.29998L11.7767 2.11331C11.8433 2.01998 11.9233 1.95331 12.0233 1.90665C12.13 1.85998 12.2433 1.83331 12.3567 1.83331ZM6.78333 10.0066L6.89 10.46L6.71 9.99331C6.74333 9.98665 6.77 9.99331 6.78333 10.0066Z" fill="#83899F"/>
</svg>
