<svg width="21" height="22" viewBox="0 0 21 22" fill="none" xmlns="http://www.w3.org/2000/svg">
<path d="M7.875 3.4375C7.875 2.29883 8.79883 1.375 9.9375 1.375H11.3125C12.4512 1.375 13.375 2.29883 13.375 3.4375V18.5625C13.375 19.7012 12.4512 20.625 11.3125 20.625H9.9375C8.79883 20.625 7.875 19.7012 7.875 18.5625V3.4375ZM1 11.6875C1 10.5488 1.92383 9.625 3.0625 9.625H4.4375C5.57617 9.625 6.5 10.5488 6.5 11.6875V18.5625C6.5 19.7012 5.57617 20.625 4.4375 20.625H3.0625C1.92383 20.625 1 19.7012 1 18.5625V11.6875ZM16.8125 4.125H18.1875C19.3262 4.125 20.25 5.04883 20.25 6.1875V18.5625C20.25 19.7012 19.3262 20.625 18.1875 20.625H16.8125C15.6738 20.625 14.75 19.7012 14.75 18.5625V6.1875C14.75 5.04883 15.6738 4.125 16.8125 4.125Z" fill="#F8B602"/>
</svg>
