<svg width="17" height="13" viewBox="0 0 17 13" fill="none" xmlns="http://www.w3.org/2000/svg">
<g clip-path="url(#clip0_2_1563)">
<path d="M1.76693 0.230015C1.52318 0.0378271 1.16927 0.0823583 0.977085 0.326108C0.784897 0.569858 0.829429 0.923765 1.07318 1.11595L14.9482 11.991C15.1919 12.1831 15.5458 12.1386 15.738 11.8949C15.9302 11.6511 15.8857 11.2972 15.6419 11.105L13.1763 9.17377C14.1044 8.2222 14.7326 7.1558 15.049 6.39876C15.1263 6.21361 15.1263 6.00736 15.049 5.8222C14.6997 4.98548 13.9661 3.76673 12.8693 2.74955C11.7677 1.72298 10.2513 0.860483 8.35755 0.860483C6.75912 0.860483 5.42787 1.47689 4.38958 2.28548L1.76693 0.230015ZM6.08646 3.61439C6.68412 3.0683 7.48333 2.73548 8.35755 2.73548C10.2208 2.73548 11.7326 4.2472 11.7326 6.11048C11.7326 6.69408 11.5849 7.24251 11.3247 7.72064L10.4201 7.01283C10.6169 6.56048 10.6685 6.04251 10.5326 5.52923C10.2724 4.55658 9.41224 3.90267 8.45599 3.86283C8.32005 3.85814 8.24037 4.0058 8.28255 4.13705C8.33177 4.28705 8.3599 4.44642 8.3599 4.61283C8.3599 4.85189 8.30365 5.07689 8.20521 5.27611L6.0888 3.61673L6.08646 3.61439ZM9.59974 9.24876C9.21537 9.40111 8.79583 9.48548 8.35755 9.48548C6.49427 9.48548 4.98255 7.97376 4.98255 6.11048C4.98255 5.94876 4.99427 5.79173 5.01537 5.63705L2.80521 3.89564C2.27083 4.59173 1.8888 5.28548 1.66615 5.8222C1.5888 6.00736 1.5888 6.21361 1.66615 6.39876C2.01537 7.23548 2.74896 8.45423 3.84583 9.47142C4.9474 10.498 6.4638 11.3605 8.35755 11.3605C9.47787 11.3605 10.4646 11.0581 11.3154 10.5988L9.59974 9.24876Z" fill="#ADADAD"/>
</g>
<defs>
<clipPath id="clip0_2_1563">
<rect width="15.4853" height="12" fill="white" transform="translate(0.857422 0.110535)"/>
</clipPath>
</defs>
</svg>
