<svg width="17" height="14" viewBox="0 0 17 14" fill="none" xmlns="http://www.w3.org/2000/svg">
<g clip-path="url(#clip0_2_1577)">
<path d="M15.194 0.699036C14.724 0.229036 13.964 0.231536 13.4965 0.699036L12.5065 1.69154L14.739 3.92404L15.734 2.95154C16.2115 2.48404 16.214 1.71654 15.744 1.24654L15.194 0.699036ZM8.35898 5.84404C8.18398 6.01904 8.05148 6.23404 7.97398 6.46904L7.37898 8.25154C7.30648 8.46654 7.36398 8.70404 7.52398 8.86654C7.68398 9.02904 7.92148 9.08404 8.13898 9.01154L9.92648 8.41404C10.1565 8.33654 10.3665 8.20904 10.539 8.03904L14.1665 4.48654L11.939 2.25904L8.35898 5.84404ZM2.14648 3.49904C1.04148 3.49904 0.146484 4.39404 0.146484 5.49904V11.099C0.146484 12.204 1.04148 13.099 2.14648 13.099H12.5465C13.6515 13.099 14.5465 12.204 14.5465 11.099V7.89904C14.5465 7.45654 14.189 7.09904 13.7465 7.09904C13.304 7.09904 12.9465 7.45654 12.9465 7.89904V11.099C12.9465 11.319 12.7665 11.499 12.5465 11.499H2.14648C1.92648 11.499 1.74648 11.319 1.74648 11.099V5.49904C1.74648 5.27904 1.92648 5.09904 2.14648 5.09904H6.94648C7.38898 5.09904 7.74648 4.74154 7.74648 4.29904C7.74648 3.85654 7.38898 3.49904 6.94648 3.49904H2.14648ZM4.14648 8.29904C4.14648 8.08686 4.0622 7.88338 3.91217 7.73335C3.76214 7.58332 3.55866 7.49904 3.34648 7.49904C3.13431 7.49904 2.93083 7.58332 2.7808 7.73335C2.63077 7.88338 2.54648 8.08686 2.54648 8.29904C2.54648 8.51121 2.63077 8.71469 2.7808 8.86472C2.93083 9.01475 3.13431 9.09904 3.34648 9.09904C3.55866 9.09904 3.76214 9.01475 3.91217 8.86472C4.0622 8.71469 4.14648 8.51121 4.14648 8.29904ZM5.74648 9.09904C5.95866 9.09904 6.16214 9.01475 6.31217 8.86472C6.4622 8.71469 6.54648 8.51121 6.54648 8.29904C6.54648 8.08686 6.4622 7.88338 6.31217 7.73335C6.16214 7.58332 5.95866 7.49904 5.74648 7.49904C5.53431 7.49904 5.33083 7.58332 5.1808 7.73335C5.03077 7.88338 4.94648 8.08686 4.94648 8.29904C4.94648 8.51121 5.03077 8.71469 5.1808 8.86472C5.33083 9.01475 5.53431 9.09904 5.74648 9.09904Z" fill="#979CA2"/>
</g>
<defs>
<clipPath id="clip0_2_1577">
<rect width="16" height="12.8" fill="white" transform="translate(0.146484 0.299133)"/>
</clipPath>
</defs>
</svg>
