<svg width="16" height="12" viewBox="0 0 16 12" fill="none" xmlns="http://www.w3.org/2000/svg">
<path d="M8.11435 0.811401C5.9423 0.811401 4.20304 1.71497 2.9369 2.79042C1.67883 3.85604 0.837431 5.13283 0.439579 6.00939C0.350869 6.20337 0.350869 6.41944 0.439579 6.61341C0.837431 7.48997 1.67883 8.76676 2.9369 9.83238C4.20304 10.9078 5.9423 11.8114 8.11435 11.8114C10.2864 11.8114 12.0257 10.9078 13.2918 9.83238C14.5499 8.7643 15.3913 7.48997 15.7918 6.61341C15.8805 6.41944 15.8805 6.20337 15.7918 6.00939C15.3913 5.13283 14.5499 3.85604 13.2918 2.79042C12.0257 1.71497 10.2864 0.811401 8.11435 0.811401ZM4.24336 6.3114C4.24336 5.37367 4.6512 4.47435 5.37715 3.81127C6.1031 3.1482 7.0877 2.77569 8.11435 2.77569C9.141 2.77569 10.1256 3.1482 10.8516 3.81127C11.5775 4.47435 11.9853 5.37367 11.9853 6.3114C11.9853 7.24913 11.5775 8.14845 10.8516 8.81153C10.1256 9.4746 9.141 9.84712 8.11435 9.84712C7.0877 9.84712 6.1031 9.4746 5.37715 8.81153C4.6512 8.14845 4.24336 7.24913 4.24336 6.3114ZM8.11435 4.73997C8.11435 5.60671 7.34284 6.3114 6.39391 6.3114C6.20305 6.3114 6.02025 6.28194 5.84821 6.23037C5.70036 6.18618 5.52832 6.26966 5.53369 6.41207C5.54176 6.58149 5.56864 6.75091 5.61971 6.92033C5.988 8.17747 7.40467 8.9239 8.78102 8.58752C10.1574 8.25113 10.9746 6.95716 10.6063 5.70002C10.3079 4.68104 9.32135 3.996 8.22457 3.95426C8.06865 3.94935 7.97725 4.10404 8.02564 4.24154C8.08209 4.39868 8.11435 4.56564 8.11435 4.73997Z" fill="#3E97FF"/>
</svg>
